HIERARCHY
ROOT Hips
{
	OFFSET 15.585500 22.159004 44.358299
	CHANNELS 6 Xposition Yposition Zposition Zrotation Xrotation Yrotation
	JOINT Chest
	{
		OFFSET -0.128500 0.160400 6.566002
		CHANNELS 6 Xposition Yposition Zposition Zrotation Xrotation Yrotation
		JOINT Chest2
		{
			OFFSET 0.000000 0.000000 3.554802
			CHANNELS 6 Xposition Yposition Zposition Zrotation Xrotation Yrotation
			JOINT Neck
			{
				OFFSET 0.000000 0.000000 8.267998
				CHANNELS 6 Xposition Yposition Zposition Zrotation Xrotation Yrotation
				JOINT Head
				{
					OFFSET 0.000000 0.000002 2.173897
					CHANNELS 6 Xposition Yposition Zposition Zrotation Xrotation Yrotation
					End Site
					{
						OFFSET 0.000000 0.000000 7.718697
					}
				}
			}
			JOINT LeftCollar
			{
				OFFSET 2.057500 0.117599 5.946301
				CHANNELS 6 Xposition Yposition Zposition Zrotation Xrotation Yrotation
				JOINT LeftShoulder
				{
					OFFSET 4.957699 0.000000 0.000000
					CHANNELS 6 Xposition Yposition Zposition Zrotation Xrotation Yrotation
					JOINT LeftElbow
					{
						OFFSET 0.000000 0.000000 -8.465500
						CHANNELS 6 Xposition Yposition Zposition Zrotation Xrotation Yrotation
						JOINT LeftWrist
						{
							OFFSET 0.000000 -0.000002 -14.594898
							CHANNELS 6 Xposition Yposition Zposition Zrotation Xrotation Yrotation
							End Site
							{
								OFFSET 0.000000 0.000000 -2.173901
							}
						}
					}
				}
			}
			JOINT RightCollar
			{
				OFFSET -3.048500 -0.728800 6.604099
				CHANNELS 6 Xposition Yposition Zposition Zrotation Xrotation Yrotation
				JOINT RightShoulder
				{
					OFFSET -3.710299 0.000000 0.000000
					CHANNELS 6 Xposition Yposition Zposition Zrotation Xrotation Yrotation
					JOINT RightElbow
					{
						OFFSET 0.000000 0.000000 -10.450901
						CHANNELS 6 Xposition Yposition Zposition Zrotation Xrotation Yrotation
						JOINT RightWrist
						{
							OFFSET 0.000000 0.000000 -12.539200
							CHANNELS 6 Xposition Yposition Zposition Zrotation Xrotation Yrotation
							End Site
							{
								OFFSET 0.000000 -0.000002 -2.173901
							}
						}
					}
				}
			}
		}
	}
	JOINT LeftHip
	{
		OFFSET 2.442599 -0.601400 -2.767502
		CHANNELS 6 Xposition Yposition Zposition Zrotation Xrotation Yrotation
		JOINT LeftKnee
		{
			OFFSET 0.000000 -0.000002 -17.033703
			CHANNELS 6 Xposition Yposition Zposition Zrotation Xrotation Yrotation
			JOINT LeftAnkle
			{
				OFFSET 0.000000 -0.000002 -19.318800
				CHANNELS 6 Xposition Yposition Zposition Zrotation Xrotation Yrotation
				End Site
				{
					OFFSET 0.000000 -8.281900 0.000000
				}
			}
		}
	}
	JOINT RightHip
	{
		OFFSET -3.126200 -0.601400 -2.283501
		CHANNELS 6 Xposition Yposition Zposition Zrotation Xrotation Yrotation
		JOINT RightKnee
		{
			OFFSET 0.000000 -0.000002 -16.919401
			CHANNELS 6 Xposition Yposition Zposition Zrotation Xrotation Yrotation
			JOINT RightAnkle
			{
				OFFSET 0.000000 -0.000002 -18.035900
				CHANNELS 6 Xposition Yposition Zposition Zrotation Xrotation Yrotation
				End Site
				{
					OFFSET 0.000000 -9.230099 0.000000
				}
			}
		}
	}
}
MOTION
Frames: 7
Frame Time: 0.041667
23.539101 38.199104 8.319099 7.272176 16.394056 -3.730692 -0.128501 0.160395 6.566005 -7.175410 5.961746 1.784449 -0.000001 0.000006 3.554805 0.634991 -11.279838 -1.139542 -0.000004 -0.000002 8.268003 0.237982 -12.877354 1.994930 0.000003 0.000003 2.173901 1.863024 -1.190257 0.183858 2.057499 0.117594 5.946305 -20.960551 0.862440 8.350630 4.957704 0.000005 0.000002 -42.391815 -12.398401 -85.001110 0.000001 0.000005 -8.465504 -146.551298 -127.573262 -135.489438 -0.000005 -0.000002 -14.594898 -35.275748 -204.185254 -77.912145 -3.048503 -0.728804 6.604100 26.459615 0.209955 -9.609883 -3.710298 -0.000001 0.000001 40.240206 -10.522967 86.384783 -0.000001 0.000008 -10.450900 -5.781035 -73.892347 -20.723441 0.000011 -0.000002 -12.539202 221.791433 17.304446 -110.050890 2.442595 -0.601405 -2.767500 133.782219 6.613126 104.880662 0.000000 -0.000001 -17.033705 -131.211253 23.790321 127.830829 0.000005 -0.000003 -19.318810 155.970348 131.120753 290.574060 -3.126196 -0.601402 -2.283498 -142.234209 -9.443858 -111.829834 0.000002 -0.000004 -16.919397 164.796345 33.748538 -177.224052 -0.000002 0.000002 -18.035900 -33.964424 33.847487 -208.267740
23.542002 38.189503 8.321606 7.248421 16.460068 -3.753534 -0.128500 0.160403 6.566000 -7.152636 5.986004 1.803707 -0.000001 -0.000002 3.554809 0.635421 -11.288952 -1.139809 0.000002 -0.000009 8.267998 0.253074 -13.142287 1.993366 0.000001 -0.000001 2.173887 1.869630 -1.300856 0.185199 2.057505 0.117599 5.946302 -20.969610 0.894355 8.361886 4.957695 0.000010 0.000000 -42.569099 -12.437011 -85.282958 0.000004 0.000007 -8.465502 -146.592129 -127.791364 -135.871027 -0.000005 0.000000 -14.594901 -35.262416 -204.358044 -78.014366 -3.048501 -0.728806 6.604100 26.466247 0.234364 -9.650111 -3.710293 0.000002 0.000001 40.418648 -10.590639 86.705795 -0.000001 0.000012 -10.450911 -5.640713 -73.601456 -20.431514 0.000008 -0.000005 -12.539202 221.823070 17.246525 -110.164333 2.442592 -0.601396 -2.767501 133.819867 6.672556 104.886031 0.000000 -0.000002 -17.033710 -131.183400 23.751539 127.832659 0.000004 -0.000001 -19.318802 156.019102 131.122639 290.578568 -3.126195 -0.601398 -2.283499 -142.241667 -9.510714 -111.865521 0.000001 -0.000002 -16.919397 164.748206 33.737026 -177.261359 -0.000002 -0.000000 -18.035902 -33.903365 33.815450 -208.260596
23.545002 38.180103 8.324299 7.143574 16.465720 -3.744715 -0.128503 0.160402 6.566007 -7.056686 6.074755 1.823705 0.000001 0.000005 3.554808 0.637589 -11.297801 -1.139741 -0.000004 0.000007 8.267997 0.266612 -13.408971 1.990857 0.000005 0.000001 2.173897 1.895831 -1.379167 0.202387 2.057502 0.117605 5.946306 -20.977534 0.922881 8.366586 4.957703 -0.000007 0.000005 -42.754006 -12.475936 -85.562668 -0.000003 0.000003 -8.465505 -146.604683 -128.005709 -136.227290 -0.000000 0.000001 -14.594901 -35.189930 -204.425718 -78.000412 -3.048503 -0.728796 6.604102 26.464628 0.248447 -9.691190 -3.710302 0.000001 -0.000005 40.604778 -10.652354 87.023795 -0.000001 0.000009 -10.450898 -5.518076 -73.297451 -20.145846 0.000006 -0.000003 -12.539202 221.859502 17.207938 -110.257941 2.442595 -0.601399 -2.767503 133.934873 6.682118 104.849332 -0.000003 -0.000001 -17.033703 -131.156421 23.712095 127.833110 0.000001 0.000000 -19.318804 156.069303 131.124947 290.584579 -3.126199 -0.601403 -2.283499 -142.167915 -9.614785 -111.853056 0.000000 -0.000002 -16.919397 164.700463 33.722864 -177.292764 -0.000003 -0.000003 -18.035900 -33.847385 33.784462 -208.253984
23.548101 38.171204 8.327103 7.108793 16.525858 -3.764167 -0.128497 0.160404 6.566005 -7.024264 6.102070 1.845466 -0.000001 -0.000001 3.554808 0.641313 -11.306382 -1.139272 -0.000005 -0.000000 8.268001 0.278918 -13.676300 1.988144 0.000002 0.000000 2.173898 1.887044 -1.487148 0.214625 2.057499 0.117599 5.946304 -20.984721 0.947137 8.364627 4.957705 0.000006 0.000007 -42.944951 -12.516640 -85.838040 -0.000004 0.000006 -8.465501 -146.589520 -128.215888 -136.558363 -0.000001 0.000001 -14.594901 -35.056701 -204.383125 -77.863064 -3.048504 -0.728805 6.604106 26.454617 0.251572 -9.729907 -3.710296 0.000000 -0.000004 40.798164 -10.710434 87.334712 -0.000001 0.000008 -10.450897 -5.406259 -72.980100 -19.860302 0.000009 -0.000000 -12.539203 221.899322 17.185446 -110.335552 2.442597 -0.601402 -2.767499 133.981469 6.741173 104.848554 0.000003 -0.000006 -17.033703 -131.130999 23.671095 127.832605 0.000003 -0.000001 -19.318800 156.121582 131.127980 290.593294 -3.126196 -0.601402 -2.283501 -142.164459 -9.666075 -111.884113 0.000000 0.000002 -16.919401 164.654783 33.706495 -177.317680 -0.000003 -0.000003 -18.035900 -33.798488 33.755703 -208.247987
23.551102 38.162605 8.329998 7.073612 16.586071 -3.782356 -0.128500 0.160402 6.566005 -6.991358 6.126669 1.865808 -0.000000 0.000002 3.554808 0.645965 -11.314481 -1.138628 -0.000001 -0.000001 8.267997 0.290645 -13.942651 1.986149 0.000001 0.000006 2.173901 1.869729 -1.591896 0.231786 2.057499 0.117599 5.946303 -20.991704 0.966650 8.356199 4.957700 0.000002 0.000005 -43.140373 -12.560724 -86.106883 -0.000002 0.000006 -8.465501 -146.548088 -128.421722 -136.866049 -0.000002 -0.000001 -14.594896 -34.880185 -204.228735 -77.587056 -3.048503 -0.728801 6.604096 26.436932 0.244097 -9.763048 -3.710297 0.000000 -0.000002 40.998142 -10.768114 87.634865 -0.000001 0.000012 -10.450900 -5.298881 -72.648849 -19.569283 0.000010 -0.000000 -12.539202 221.940877 17.176186 -110.400808 2.442593 -0.601395 -2.767501 134.027900 6.802338 104.847905 -0.000003 0.000001 -17.033707 -131.107093 23.628268 127.831362 0.000002 -0.000000 -19.318808 156.176428 131.131668 290.604550 -3.126198 -0.601397 -2.283501 -142.159965 -9.703094 -111.915020 0.000002 0.000004 -16.919390 164.611794 33.688033 -177.335466 -0.000002 -0.000004 -18.035900 -33.758521 33.729957 -208.242455
23.553898 38.154308 8.332996 7.041100 16.648330 -3.798767 -0.128496 0.160395 6.566009 -6.960243 6.146370 1.882331 0.000001 -0.000001 3.554806 0.650731 -11.321982 -1.137971 0.000003 0.000005 8.267998 0.302743 -14.206991 1.985683 0.000003 0.000004 2.173896 1.844714 -1.692311 0.254113 2.057506 0.117602 5.946298 -20.999171 0.982070 8.342765 4.957698 -0.000001 0.000008 -43.338428 -12.609771 -86.368097 0.000001 0.000005 -8.465507 -146.482546 -128.623363 -137.153299 0.000001 0.000000 -14.594897 -34.192214 -203.789390 -76.060679 -3.048498 -0.728796 6.604100 26.413074 0.227793 -9.788842 -3.710298 0.000001 0.000000 41.204308 -10.829298 87.922232 -0.000004 0.000008 -10.450893 -5.191494 -72.302723 -19.269039 0.000011 0.000001 -12.539204 221.983115 17.177490 -110.457157 2.442598 -0.601400 -2.767505 134.071737 6.865808 104.849735 -0.000002 -0.000006 -17.033703 -131.084526 23.583445 127.829572 0.000002 -0.000004 -19.318806 156.233897 131.136080 290.618238 -3.126199 -0.601406 -2.283499 -142.156618 -9.722643 -111.946336 0.000002 -0.000003 -16.919397 164.572889 33.667857 -177.346408 -0.000002 -0.000001 -18.035900 -33.727799 33.707936 -208.237687
23.556299 38.146301 8.336098 7.013234 16.714072 -3.812508 -0.128500 0.160399 6.566006 -6.932280 6.159224 1.892463 -0.000001 -0.000004 3.554809 0.654692 -11.328962 -1.137478 -0.000003 0.000000 8.268003 0.316363 -14.468386 1.987518 0.000001 0.000003 2.173901 1.813221 -1.787903 0.281593 2.057500 0.117600 5.946301 -21.007833 0.993902 8.326692 4.957698 0.000009 0.000005 -43.537572 -12.665325 -86.621388 -0.000001 0.000006 -8.465500 -146.395256 -128.821534 -137.423584 -0.000009 -0.000002 -14.594908 -33.944025 -203.665668 -75.656995 -3.048505 -0.728802 6.604099 26.385297 0.205375 -9.805813 -3.710292 -0.000000 -0.000004 41.416184 -10.897898 88.196074 -0.000004 0.000001 -10.450900 -5.080920 -71.940402 -18.956657 0.000012 -0.000003 -12.539203 222.025148 17.187256 -110.507126 2.442595 -0.601401 -2.767498 134.110860 6.930602 104.856299 -0.000002 -0.000002 -17.033707 -131.062847 23.536818 127.827865 0.000003 -0.000002 -19.318808 156.293156 131.140930 290.633237 -3.126201 -0.601400 -2.283496 -142.155990 -9.722760 -111.978254 -0.000000 -0.000002 -16.919399 164.538861 33.646547 -177.351053 -0.000002 -0.000004 -18.035896 -33.706161 33.689710 -208.233644
